<mxfile host="app.diagrams.net" agent="Mozilla/5.0 (Macintosh; Intel Mac OS X 10_15_7) AppleWebKit/537.36 (KHTML, like Gecko) Chrome/132.0.0.0 Safari/537.36" version="26.0.6">
  <diagram name="Page-1" id="FzXUYC-xEZpEs7OeFJp6">
    <mxGraphModel dx="1481" dy="919" grid="1" gridSize="10" guides="1" tooltips="1" connect="1" arrows="1" fold="1" page="1" pageScale="1" pageWidth="827" pageHeight="1169" math="1" shadow="0">
      <root>
        <mxCell id="0" />
        <mxCell id="1" parent="0" />
        <mxCell id="7cJiBuiN9KozIqpzK_2i-1" value="" style="shape=stencil(tZbtkoIgFIavxp/rAEfTfu64232QsauTCw7ax979ooAFlFNtNU0O7+G8PsLhWARFV9GWRQRVEXxEhBCE1K8aH7wx7VpW9lrcU1nTdcN0pOul2LJDvemNR80rJut+iMJnhN7VnOELRSk4Vya14J0TOYsrM1pzlYuO2szc/tcZtcr/h/VMahVrNSKr223j9DXG+EW8rq2lfzrv84xdYvyqjXuaMX7cFgqlXCtuKNa03H5LseObMOtq7EtIdiEwheum0Qdv5jFvnFCKRkgl6Ov4oFxwNr+EA8CFxIgAwEp95rNp01Z06Crj1WwspPNJLR06TBCw4R+xZ1fLL0Nz3lNd7KT2wDotiTOddiS2HcbEUB5BS4tTRZosjFCcWY1YzYzBjiej+5Dy1N7OMmEcQuH0DMFkptMsC7U8oZu87FEscnbDCWx5ASwnARiggAxDgKbeRA+y4Rz5u6jckQtGkEc1YCUu1bBgCw8L8ER654qhZbCTuQeFp7KxS7VALlKCvMJKbOXfR/NGvDVKY3BZPJLEJwHwS/zGM9eIbq5HKf3Kwf9vFxy9gz47qvpf0Sj8AQ==);whiteSpace=wrap;html=1;fillColor=#33FFFF;strokeWidth=2;perimeterSpacing=22;fillStyle=auto;gradientColor=none;strokeColor=default;" vertex="1" parent="1">
          <mxGeometry x="610" y="584.8199999999999" width="119" height="79.25" as="geometry" />
        </mxCell>
        <mxCell id="7cJiBuiN9KozIqpzK_2i-2" value="" style="shape=stencil(tZbdjoMgEIWfxlsDjNb2cmO370Etu5paMGj/3n5RBAVb03bbpKnhDHP8GAZiAGmd04oFBOUBrANCCELqX43P3pjWFcsaLZ6oLOi2ZDpSN1Ls2bnYNb1HwXMmi6aNwneAvtSc9gdpJjhXJoXgtRMZxZUZLbjKRRdt1r/+6owq5X9gDZNaxVoNyOZx2zD+jDH+EK9ra+jfzvs+Y5cYf2rj3maMX7eFVCn3mhvSLc32v1Ic+W6adTf2IyS7EbDhoiz1wZtZ5oMTMlEKqQT97BbKBWfzJWwBbiQGBNZJmm4289m0rHLa3irds99YiOeTKtreMJOACR/EiQ3bufD6L0Fz5rYxjlKbYOMSJjrvQrSSoJD0nBfQ0nLoyT4NI5VnNGK1XhjSyOyK70HhyL7QUGEyxcLxCMKC2WnXYUGxC7Z6FYyMlm3IWs0nG8+zZPEUDS8nbPhlOGXm1WzpF2yFXCYCKIxcpLY4C48JsMV8vl7+RlpKA4U9KLCd3adEfmNF5u59jib26qM2BFyWhYcS+SgAHsqjx64U9dw9pfQ7h/+/N2HnPblrO1V/GXXCHw==);whiteSpace=wrap;html=1;fillColor=#33FFFF;strokeWidth=2;perimeterSpacing=22;fillStyle=auto;gradientColor=none;strokeColor=default;rotation=-180;" vertex="1" parent="1">
          <mxGeometry x="610" y="541.0699999999999" width="161" height="36" as="geometry" />
        </mxCell>
        <mxCell id="7cJiBuiN9KozIqpzK_2i-3" value="" style="triangle;whiteSpace=wrap;html=1;rotation=-90;fillColor=light-dark(#2da02d, #008500);strokeColor=#000000;strokeWidth=2;container=0;" vertex="1" parent="1">
          <mxGeometry x="89.75" y="599.75" width="35" height="36" as="geometry" />
        </mxCell>
        <mxCell id="7cJiBuiN9KozIqpzK_2i-18" value="&lt;b style=&quot;forced-color-adjust: none; font-family: Helvetica; font-style: normal; font-variant-ligatures: normal; font-variant-caps: normal; letter-spacing: normal; orphans: 2; text-align: center; text-indent: 0px; text-transform: none; widows: 2; word-spacing: 0px; -webkit-text-stroke-width: 0px; white-space: normal; background-color: rgb(251, 251, 251); text-decoration-thickness: initial; text-decoration-style: initial; text-decoration-color: initial;&quot;&gt;&lt;font style=&quot;color: rgb(255, 17, 120); font-size: 20px;&quot;&gt;$$\mathcal{L}_\mathrm{DCU}(z_s, z_t^c, z_t^u)$$&lt;/font&gt;&lt;/b&gt;" style="text;whiteSpace=wrap;html=1;" vertex="1" parent="1">
          <mxGeometry x="94.53" y="430" width="100" height="40" as="geometry" />
        </mxCell>
        <mxCell id="7cJiBuiN9KozIqpzK_2i-19" value="&lt;b style=&quot;forced-color-adjust: none; font-family: Helvetica; font-style: normal; font-variant-ligatures: normal; font-variant-caps: normal; letter-spacing: normal; orphans: 2; text-align: center; text-indent: 0px; text-transform: none; widows: 2; word-spacing: 0px; -webkit-text-stroke-width: 0px; white-space: normal; background-color: rgb(251, 251, 251); text-decoration-thickness: initial; text-decoration-style: initial; text-decoration-color: initial;&quot;&gt;&lt;font style=&quot;color: rgb(38, 110, 255); font-size: 20px;&quot;&gt;$$\mathcal{L}_\mathrm{SupCLIP}(z_s, z_t^u, y)$$&lt;/font&gt;&lt;/b&gt;" style="text;whiteSpace=wrap;html=1;" vertex="1" parent="1">
          <mxGeometry x="457" y="430" width="100" height="40" as="geometry" />
        </mxCell>
        <mxCell id="7cJiBuiN9KozIqpzK_2i-28" value="" style="group" vertex="1" connectable="0" parent="1">
          <mxGeometry x="31.25" y="601.25" width="150" height="35.5" as="geometry" />
        </mxCell>
        <mxCell id="7cJiBuiN9KozIqpzK_2i-29" value="&lt;span style=&quot;color: rgb(255, 255, 255); font-size: 16px; text-wrap-mode: wrap;&quot;&gt;1&lt;/span&gt;" style="text;html=1;align=center;verticalAlign=middle;resizable=0;points=[];autosize=1;strokeColor=none;fillColor=none;container=0;" vertex="1" parent="7cJiBuiN9KozIqpzK_2i-28">
          <mxGeometry x="61" y="5.5" width="30" height="30" as="geometry" />
        </mxCell>
        <mxCell id="7cJiBuiN9KozIqpzK_2i-30" value="&lt;span style=&quot;color: rgb(255, 255, 255); font-size: 16px;&quot;&gt;1&lt;/span&gt;" style="ellipse;whiteSpace=wrap;html=1;aspect=fixed;fillColor=light-dark(#2077b4, #512d2b);strokeColor=#000000;strokeWidth=2;" vertex="1" parent="1">
          <mxGeometry x="270" y="538.87" width="40" height="40" as="geometry" />
        </mxCell>
        <mxCell id="7cJiBuiN9KozIqpzK_2i-31" value="&lt;span style=&quot;color: rgb(255, 255, 255); font-size: 16px;&quot;&gt;1&lt;/span&gt;" style="ellipse;whiteSpace=wrap;html=1;aspect=fixed;fillColor=light-dark(#ff7f0c, #512d2b);strokeColor=#000000;strokeWidth=2;" vertex="1" parent="1">
          <mxGeometry x="240" y="666.5" width="40" height="40" as="geometry" />
        </mxCell>
        <mxCell id="7cJiBuiN9KozIqpzK_2i-32" value="" style="group" vertex="1" connectable="0" parent="1">
          <mxGeometry x="260" y="560.5" width="150" height="69.25" as="geometry" />
        </mxCell>
        <mxCell id="7cJiBuiN9KozIqpzK_2i-33" value="" style="triangle;whiteSpace=wrap;html=1;rotation=-90;fillColor=light-dark(#2da02d, #008500);strokeColor=#000000;strokeWidth=2;container=0;" vertex="1" parent="7cJiBuiN9KozIqpzK_2i-32">
          <mxGeometry x="57.75" y="30.5" width="35" height="36" as="geometry" />
        </mxCell>
        <mxCell id="7cJiBuiN9KozIqpzK_2i-38" value="&lt;span style=&quot;color: rgb(255, 255, 255); font-size: 16px; text-wrap-mode: wrap;&quot;&gt;1&lt;/span&gt;" style="text;html=1;align=center;verticalAlign=middle;resizable=0;points=[];autosize=1;strokeColor=none;fillColor=none;container=0;" vertex="1" parent="7cJiBuiN9KozIqpzK_2i-32">
          <mxGeometry x="60" y="39.25" width="30" height="30" as="geometry" />
        </mxCell>
        <mxCell id="7cJiBuiN9KozIqpzK_2i-34" value="" style="html=1;shadow=0;dashed=0;align=center;verticalAlign=middle;shape=mxgraph.arrows2.jumpInArrow;dy=4.97;dx=42.94;arrowHead=28.88;rotation=45;fillColor=light-dark(#2747b3, #ededed);gradientColor=#7772FF;gradientDirection=west;" vertex="1" parent="1">
          <mxGeometry x="153.5" y="578.87" width="94" height="78.25" as="geometry" />
        </mxCell>
        <mxCell id="7cJiBuiN9KozIqpzK_2i-35" value="" style="endArrow=classic;startArrow=classic;html=1;rounded=0;entryX=0.373;entryY=0.981;entryDx=0;entryDy=0;exitX=1;exitY=0;exitDx=0;exitDy=0;entryPerimeter=0;" edge="1" parent="1" source="7cJiBuiN9KozIqpzK_2i-31" target="7cJiBuiN9KozIqpzK_2i-38">
          <mxGeometry width="50" height="50" relative="1" as="geometry">
            <mxPoint x="311.25" y="710" as="sourcePoint" />
            <mxPoint x="361.25" y="660" as="targetPoint" />
          </mxGeometry>
        </mxCell>
        <mxCell id="7cJiBuiN9KozIqpzK_2i-36" value="" style="endArrow=none;startArrow=classic;html=1;rounded=0;startFill=1;endFill=0;entryX=0.94;entryY=0.753;entryDx=0;entryDy=0;entryPerimeter=0;" edge="1" parent="1" target="7cJiBuiN9KozIqpzK_2i-30">
          <mxGeometry width="50" height="50" relative="1" as="geometry">
            <mxPoint x="336" y="590" as="sourcePoint" />
            <mxPoint x="280" y="560" as="targetPoint" />
          </mxGeometry>
        </mxCell>
        <mxCell id="7cJiBuiN9KozIqpzK_2i-37" value="" style="endArrow=none;dashed=1;html=1;rounded=0;dashPattern=8 8;strokeWidth=3;" edge="1" parent="1">
          <mxGeometry width="50" height="50" relative="1" as="geometry">
            <mxPoint x="378" y="764" as="sourcePoint" />
            <mxPoint x="378" y="484" as="targetPoint" />
          </mxGeometry>
        </mxCell>
        <mxCell id="7cJiBuiN9KozIqpzK_2i-39" value="&lt;span style=&quot;color: rgb(255, 255, 255); font-size: 16px;&quot;&gt;1&lt;/span&gt;" style="ellipse;whiteSpace=wrap;html=1;aspect=fixed;fillColor=light-dark(#ff7f0c, #512d2b);strokeColor=#000000;strokeWidth=2;" vertex="1" parent="1">
          <mxGeometry x="49.75" y="650" width="40" height="40" as="geometry" />
        </mxCell>
        <mxCell id="7cJiBuiN9KozIqpzK_2i-40" value="&lt;span style=&quot;color: rgb(255, 255, 255); font-size: 16px;&quot;&gt;1&lt;/span&gt;" style="ellipse;whiteSpace=wrap;html=1;aspect=fixed;fillColor=light-dark(#2077b4, #512d2b);strokeColor=#000000;strokeWidth=2;" vertex="1" parent="1">
          <mxGeometry x="30" y="595.75" width="40" height="40" as="geometry" />
        </mxCell>
        <mxCell id="7cJiBuiN9KozIqpzK_2i-41" value="" style="triangle;whiteSpace=wrap;html=1;rotation=-90;fillColor=light-dark(#2da02d, #008500);strokeColor=#000000;strokeWidth=2;container=0;" vertex="1" parent="1">
          <mxGeometry x="469.75" y="546" width="35" height="36" as="geometry" />
        </mxCell>
        <mxCell id="7cJiBuiN9KozIqpzK_2i-42" value="" style="group" vertex="1" connectable="0" parent="1">
          <mxGeometry x="410" y="548" width="150" height="35.5" as="geometry" />
        </mxCell>
        <mxCell id="7cJiBuiN9KozIqpzK_2i-43" value="&lt;span style=&quot;color: rgb(255, 255, 255); font-size: 16px; text-wrap-mode: wrap;&quot;&gt;2&lt;/span&gt;" style="text;html=1;align=center;verticalAlign=middle;resizable=0;points=[];autosize=1;strokeColor=none;fillColor=none;container=0;" vertex="1" parent="7cJiBuiN9KozIqpzK_2i-42">
          <mxGeometry x="61" y="5.5" width="30" height="30" as="geometry" />
        </mxCell>
        <mxCell id="7cJiBuiN9KozIqpzK_2i-44" value="&lt;span style=&quot;color: rgb(255, 255, 255); font-size: 16px;&quot;&gt;1&lt;/span&gt;" style="ellipse;whiteSpace=wrap;html=1;aspect=fixed;fillColor=light-dark(#ff7f0c, #512d2b);strokeColor=#000000;strokeWidth=2;" vertex="1" parent="7cJiBuiN9KozIqpzK_2i-42">
          <mxGeometry x="-17" y="-17" width="40" height="40" as="geometry" />
        </mxCell>
        <mxCell id="7cJiBuiN9KozIqpzK_2i-45" value="" style="triangle;whiteSpace=wrap;html=1;rotation=-90;fillColor=light-dark(#2da02d, #008500);strokeColor=#000000;strokeWidth=2;container=0;" vertex="1" parent="1">
          <mxGeometry x="409.75" y="597" width="35" height="36" as="geometry" />
        </mxCell>
        <mxCell id="7cJiBuiN9KozIqpzK_2i-46" value="" style="group" vertex="1" connectable="0" parent="1">
          <mxGeometry x="350.86" y="599.75" width="207.14" height="56.63" as="geometry" />
        </mxCell>
        <mxCell id="7cJiBuiN9KozIqpzK_2i-47" value="&lt;span style=&quot;color: rgb(255, 255, 255); font-size: 16px; text-wrap-mode: wrap;&quot;&gt;1&lt;/span&gt;" style="text;html=1;align=center;verticalAlign=middle;resizable=0;points=[];autosize=1;strokeColor=none;fillColor=none;container=0;snapToPoint=1;" vertex="1" parent="7cJiBuiN9KozIqpzK_2i-46">
          <mxGeometry x="61" y="5.5" width="30" height="30" as="geometry" />
        </mxCell>
        <mxCell id="7cJiBuiN9KozIqpzK_2i-48" value="" style="html=1;shadow=0;dashed=0;align=center;verticalAlign=middle;shape=mxgraph.arrows2.jumpInArrow;dy=3.46;dx=42.06;arrowHead=26.45;rotation=-210;direction=east;flipH=1;fillColor=#3D6AFF;gradientColor=#5E59FF;gradientDirection=west;" vertex="1" parent="7cJiBuiN9KozIqpzK_2i-46">
          <mxGeometry x="142.75" y="4.13" width="88.39" height="54.38" as="geometry" />
        </mxCell>
        <mxCell id="7cJiBuiN9KozIqpzK_2i-49" value="&lt;span style=&quot;color: rgb(255, 255, 255); font-size: 16px;&quot;&gt;2&lt;/span&gt;" style="ellipse;whiteSpace=wrap;html=1;aspect=fixed;fillColor=light-dark(#ff7f0c, #512d2b);strokeColor=#000000;strokeWidth=2;" vertex="1" parent="1">
          <mxGeometry x="440" y="647" width="40" height="40" as="geometry" />
        </mxCell>
        <mxCell id="7cJiBuiN9KozIqpzK_2i-50" value="&lt;span style=&quot;color: rgb(255, 255, 255); font-size: 16px;&quot;&gt;3&lt;/span&gt;" style="ellipse;whiteSpace=wrap;html=1;aspect=fixed;fillColor=light-dark(#ff7f0c, #512d2b);strokeColor=#000000;strokeWidth=2;" vertex="1" parent="1">
          <mxGeometry x="420" y="702" width="40" height="40" as="geometry" />
        </mxCell>
        <mxCell id="7cJiBuiN9KozIqpzK_2i-51" value="" style="triangle;whiteSpace=wrap;html=1;rotation=-90;fillColor=light-dark(#2da02d, #008500);strokeColor=#000000;strokeWidth=2;container=0;" vertex="1" parent="1">
          <mxGeometry x="489.75" y="696" width="35" height="36" as="geometry" />
        </mxCell>
        <mxCell id="7cJiBuiN9KozIqpzK_2i-52" value="&lt;span style=&quot;color: rgb(255, 255, 255); font-size: 16px; text-wrap-mode: wrap;&quot;&gt;3&lt;/span&gt;" style="text;html=1;align=center;verticalAlign=middle;resizable=0;points=[];autosize=1;strokeColor=none;fillColor=none;container=0;" vertex="1" parent="1">
          <mxGeometry x="492" y="704.07" width="30" height="30" as="geometry" />
        </mxCell>
        <mxCell id="7cJiBuiN9KozIqpzK_2i-53" value="" style="triangle;whiteSpace=wrap;html=1;rotation=-90;fillColor=light-dark(#2da02d, #008500);strokeColor=#000000;strokeWidth=2;container=0;" vertex="1" parent="1">
          <mxGeometry x="678.75" y="520.0699999999999" width="35" height="36" as="geometry" />
        </mxCell>
        <mxCell id="7cJiBuiN9KozIqpzK_2i-54" value="" style="group" vertex="1" connectable="0" parent="1">
          <mxGeometry x="621.25" y="521.5699999999999" width="150" height="35.5" as="geometry" />
        </mxCell>
        <mxCell id="7cJiBuiN9KozIqpzK_2i-55" value="&lt;span style=&quot;color: rgb(255, 255, 255); font-size: 16px; text-wrap-mode: wrap;&quot;&gt;1&lt;/span&gt;" style="text;html=1;align=center;verticalAlign=middle;resizable=0;points=[];autosize=1;strokeColor=none;fillColor=none;container=0;" vertex="1" parent="7cJiBuiN9KozIqpzK_2i-54">
          <mxGeometry x="61" y="5.5" width="30" height="30" as="geometry" />
        </mxCell>
        <mxCell id="7cJiBuiN9KozIqpzK_2i-56" value="&lt;span style=&quot;color: rgb(255, 255, 255); font-size: 16px;&quot;&gt;1&lt;/span&gt;" style="ellipse;whiteSpace=wrap;html=1;aspect=fixed;fillColor=light-dark(#ff7f0c, #512d2b);strokeColor=#000000;strokeWidth=2;" vertex="1" parent="1">
          <mxGeometry x="631" y="510.07" width="40" height="40" as="geometry" />
        </mxCell>
        <mxCell id="7cJiBuiN9KozIqpzK_2i-57" value="&lt;span style=&quot;color: rgb(255, 255, 255); font-size: 16px;&quot;&gt;2&lt;/span&gt;" style="ellipse;whiteSpace=wrap;html=1;aspect=fixed;fillColor=light-dark(#ff7f0c, #512d2b);strokeColor=#000000;strokeWidth=2;" vertex="1" parent="1">
          <mxGeometry x="621.25" y="617.1199999999999" width="40" height="40" as="geometry" />
        </mxCell>
        <mxCell id="7cJiBuiN9KozIqpzK_2i-58" value="" style="triangle;whiteSpace=wrap;html=1;rotation=-90;fillColor=light-dark(#2da02d, #008500);strokeColor=#000000;strokeWidth=2;container=0;" vertex="1" parent="1">
          <mxGeometry x="677.75" y="654.0699999999999" width="35" height="36" as="geometry" />
        </mxCell>
        <mxCell id="7cJiBuiN9KozIqpzK_2i-59" value="" style="group" vertex="1" connectable="0" parent="1">
          <mxGeometry x="620" y="654.0699999999999" width="150" height="35.5" as="geometry" />
        </mxCell>
        <mxCell id="7cJiBuiN9KozIqpzK_2i-60" value="&lt;span style=&quot;color: rgb(255, 255, 255); font-size: 16px; text-wrap-mode: wrap;&quot;&gt;2&lt;/span&gt;" style="text;html=1;align=center;verticalAlign=middle;resizable=0;points=[];autosize=1;strokeColor=none;fillColor=none;container=0;" vertex="1" parent="7cJiBuiN9KozIqpzK_2i-59">
          <mxGeometry x="61" y="5.5" width="30" height="30" as="geometry" />
        </mxCell>
        <mxCell id="7cJiBuiN9KozIqpzK_2i-61" value="&lt;span style=&quot;color: rgb(255, 255, 255); font-size: 16px;&quot;&gt;3&lt;/span&gt;" style="ellipse;whiteSpace=wrap;html=1;aspect=fixed;fillColor=light-dark(#ff7f0c, #512d2b);strokeColor=#000000;strokeWidth=2;" vertex="1" parent="1">
          <mxGeometry x="620" y="686.9999999999999" width="40" height="40" as="geometry" />
        </mxCell>
        <mxCell id="7cJiBuiN9KozIqpzK_2i-62" value="" style="triangle;whiteSpace=wrap;html=1;rotation=-90;fillColor=light-dark(#2da02d, #008500);strokeColor=#000000;strokeWidth=2;container=0;" vertex="1" parent="1">
          <mxGeometry x="675.75" y="696.5699999999999" width="35" height="36" as="geometry" />
        </mxCell>
        <mxCell id="7cJiBuiN9KozIqpzK_2i-63" value="&lt;span style=&quot;color: rgb(255, 255, 255); font-size: 16px; text-wrap-mode: wrap;&quot;&gt;3&lt;/span&gt;" style="text;html=1;align=center;verticalAlign=middle;resizable=0;points=[];autosize=1;strokeColor=none;fillColor=none;container=0;" vertex="1" parent="1">
          <mxGeometry x="679" y="704.0699999999999" width="30" height="30" as="geometry" />
        </mxCell>
        <mxCell id="7cJiBuiN9KozIqpzK_2i-64" value="" style="endArrow=none;startArrow=classic;html=1;rounded=0;startFill=1;endFill=0;entryX=1;entryY=0.5;entryDx=0;entryDy=0;exitX=0.5;exitY=0;exitDx=0;exitDy=0;" edge="1" parent="1" source="7cJiBuiN9KozIqpzK_2i-53" target="7cJiBuiN9KozIqpzK_2i-56">
          <mxGeometry width="50" height="50" relative="1" as="geometry">
            <mxPoint x="699" y="510.07" as="sourcePoint" />
            <mxPoint x="671" y="489.07" as="targetPoint" />
          </mxGeometry>
        </mxCell>
        <mxCell id="7cJiBuiN9KozIqpzK_2i-65" value="" style="endArrow=classic;startArrow=classic;html=1;rounded=0;exitX=0.816;exitY=0.072;exitDx=0;exitDy=0;exitPerimeter=0;entryX=0;entryY=0.5;entryDx=0;entryDy=0;" edge="1" parent="1" source="7cJiBuiN9KozIqpzK_2i-57" target="7cJiBuiN9KozIqpzK_2i-53">
          <mxGeometry width="50" height="50" relative="1" as="geometry">
            <mxPoint x="667.75" y="612.0699999999999" as="sourcePoint" />
            <mxPoint x="699" y="554.0699999999999" as="targetPoint" />
          </mxGeometry>
        </mxCell>
        <mxCell id="7cJiBuiN9KozIqpzK_2i-66" value="" style="endArrow=none;startArrow=classic;html=1;rounded=0;startFill=1;endFill=0;entryX=0.932;entryY=0.754;entryDx=0;entryDy=0;entryPerimeter=0;exitX=0.688;exitY=0.31;exitDx=0;exitDy=0;exitPerimeter=0;" edge="1" parent="1" source="7cJiBuiN9KozIqpzK_2i-58" target="7cJiBuiN9KozIqpzK_2i-57">
          <mxGeometry width="50" height="50" relative="1" as="geometry">
            <mxPoint x="699" y="654.0699999999999" as="sourcePoint" />
            <mxPoint x="671" y="639.5699999999999" as="targetPoint" />
          </mxGeometry>
        </mxCell>
        <mxCell id="7cJiBuiN9KozIqpzK_2i-68" value="" style="endArrow=none;startArrow=classic;html=1;rounded=0;startFill=1;endFill=0;entryX=0.5;entryY=1;entryDx=0;entryDy=0;exitX=0.663;exitY=0.337;exitDx=0;exitDy=0;exitPerimeter=0;" edge="1" parent="1" source="7cJiBuiN9KozIqpzK_2i-62" target="7cJiBuiN9KozIqpzK_2i-57">
          <mxGeometry width="50" height="50" relative="1" as="geometry">
            <mxPoint x="637" y="675" as="sourcePoint" />
            <mxPoint x="608" y="657" as="targetPoint" />
          </mxGeometry>
        </mxCell>
        <mxCell id="7cJiBuiN9KozIqpzK_2i-69" value="" style="endArrow=none;startArrow=classic;html=1;rounded=0;startFill=1;endFill=0;entryX=0.961;entryY=0.656;entryDx=0;entryDy=0;entryPerimeter=0;exitX=0.41;exitY=0.194;exitDx=0;exitDy=0;exitPerimeter=0;" edge="1" parent="1" source="7cJiBuiN9KozIqpzK_2i-62" target="7cJiBuiN9KozIqpzK_2i-61">
          <mxGeometry width="50" height="50" relative="1" as="geometry">
            <mxPoint x="678" y="755" as="sourcePoint" />
            <mxPoint x="649" y="737" as="targetPoint" />
          </mxGeometry>
        </mxCell>
        <mxCell id="7cJiBuiN9KozIqpzK_2i-72" value="" style="ellipse;whiteSpace=wrap;html=1;aspect=fixed;fillColor=light-dark(#ff7f0c, #512d2b);strokeColor=#000000;strokeWidth=2;" vertex="1" parent="1">
          <mxGeometry x="240" y="800" width="40" height="40" as="geometry" />
        </mxCell>
        <mxCell id="7cJiBuiN9KozIqpzK_2i-73" value="" style="ellipse;whiteSpace=wrap;html=1;aspect=fixed;fillColor=light-dark(#2077b4, #512d2b);strokeColor=#000000;strokeWidth=2;" vertex="1" parent="1">
          <mxGeometry x="380" y="800" width="40" height="40" as="geometry" />
        </mxCell>
        <mxCell id="7cJiBuiN9KozIqpzK_2i-78" value="" style="triangle;whiteSpace=wrap;html=1;rotation=-90;fillColor=light-dark(#2da02d, #008500);strokeColor=#000000;strokeWidth=2;container=0;" vertex="1" parent="1">
          <mxGeometry x="520" y="800" width="35" height="36" as="geometry" />
        </mxCell>
      </root>
    </mxGraphModel>
  </diagram>
</mxfile>
